<svg width="934" height="307" viewBox="0 0 934 307" fill="none" xmlns="http://www.w3.org/2000/svg">
<path d="M577.604 182.014C581.292 182.014 584.91 182.794 588.457 184.354L588.031 186.27L587.393 186.376C584.201 184.815 580.867 184.035 577.391 184.035C574.625 184.035 572.213 184.603 570.156 185.738C568.099 186.802 566.538 188.22 565.474 189.994C564.41 191.696 563.878 193.434 563.878 195.207C563.878 197.051 564.41 198.647 565.474 199.995C566.609 201.343 567.957 202.478 569.517 203.4C571.078 204.322 573.277 205.422 576.114 206.698C579.164 208.046 581.612 209.287 583.456 210.422C585.371 211.557 586.967 213.011 588.244 214.785C589.592 216.487 590.265 218.58 590.265 221.062C590.265 223.474 589.556 225.744 588.137 227.872C586.79 230 584.839 231.702 582.285 232.979C579.803 234.185 577.001 234.788 573.88 234.788C571.61 234.788 569.269 234.469 566.857 233.83C564.446 233.121 562.318 232.163 560.473 230.958L560.58 228.936L561.112 228.83C562.885 230.106 564.907 231.099 567.177 231.809C569.517 232.447 571.752 232.766 573.88 232.766C576.717 232.766 579.2 232.234 581.328 231.17C583.527 230.035 585.194 228.581 586.329 226.808C587.534 225.035 588.137 223.155 588.137 221.169C588.137 219.183 587.57 217.48 586.435 216.062C585.3 214.572 583.917 213.366 582.285 212.444C580.654 211.451 578.384 210.28 575.476 208.933C572.426 207.514 570.014 206.273 568.241 205.209C566.467 204.145 564.942 202.797 563.665 201.166C562.389 199.463 561.75 197.406 561.75 194.994C561.75 192.654 562.424 190.49 563.772 188.504C565.12 186.518 566.999 184.957 569.411 183.822C571.823 182.616 574.554 182.014 577.604 182.014Z" fill="#FFCA41"/>
<path d="M542.397 219.892L542.291 234.469H540.163L505.476 186.482H505.157L505.051 218.083V234.469H502.923V218.934L503.029 182.226H505.157L539.843 230.213H540.269L540.375 182.333L542.503 182.12L542.397 219.892Z" fill="#FFCA41"/>
<path d="M484.057 234.469H481.929V182.226H484.057V234.469Z" fill="#FFCA41"/>
<path d="M465.954 234.469H463.507L462.443 230.745L457.23 217.338H430.842L425.203 230.745L423.926 234.469H421.479L443.504 182.226H445.738L465.954 234.469ZM444.674 185.418H444.355L431.694 215.317H456.378L444.674 185.418Z" fill="#FFCA41"/>
<path d="M398.941 212.657C403.41 219.679 408.624 226.772 414.582 233.937V234.362L413.093 235.107L412.454 234.788C406.425 227.34 401.176 220.105 396.707 213.082H385.109V234.469H382.981V182.226L395.643 182.12C400.75 182.12 404.687 183.361 407.453 185.844C410.22 188.327 411.603 191.873 411.603 196.484C411.603 200.456 410.504 203.861 408.305 206.698C406.106 209.465 402.985 211.451 398.941 212.657ZM385.109 211.061L397.345 211.167C401.247 210.245 404.226 208.543 406.283 206.06C408.34 203.506 409.369 200.35 409.369 196.59C409.369 192.689 408.234 189.674 405.964 187.546C403.694 185.418 400.396 184.248 396.069 184.035L385.109 184.142V211.061Z" fill="#FFCA41"/>
<path d="M358.397 207.123C362.369 207.691 365.455 209.039 367.654 211.167C369.924 213.295 371.058 216.238 371.058 219.998C371.058 224.679 369.321 228.297 365.845 230.851C362.369 233.404 357.404 234.681 350.949 234.681C346.48 234.681 343.217 234.61 341.16 234.468V182.226L352.332 182.119C356.943 182.119 360.489 183.183 362.972 185.311C365.526 187.368 366.802 190.348 366.802 194.249C366.802 200.633 364.001 204.924 358.397 207.123ZM343.288 184.141V206.272L354.566 206.485C357.758 205.917 360.206 204.605 361.908 202.548C363.61 200.42 364.462 197.689 364.462 194.355C364.462 191.234 363.398 188.752 361.27 186.907C359.142 185.063 356.269 184.141 352.651 184.141H343.288ZM350.63 232.766C356.446 232.766 360.915 231.666 364.036 229.467C367.228 227.197 368.824 224.041 368.824 219.998C368.824 216.593 367.654 213.897 365.313 211.911C363.043 209.925 359.709 208.755 355.311 208.4L343.288 208.507V232.447C345.629 232.659 348.076 232.766 350.63 232.766Z" fill="#FFCA41"/>
<path d="M561.735 125.743V145.534H559.607V125.637L541.945 93.2913H544.605L545.563 95.5257L560.459 122.445H560.884L577.057 95.5257L578.121 93.2913H580.781L561.735 125.743Z" fill="#FFCA41"/>
<path d="M518.694 123.722C523.163 130.744 528.377 137.837 534.335 145.002V145.427L532.845 146.172L532.207 145.853C526.178 138.405 520.929 131.17 516.46 124.147H504.862V145.534H502.734V93.2913L515.396 93.1849C520.503 93.1849 524.44 94.4262 527.206 96.9089C529.973 99.3915 531.356 102.938 531.356 107.549C531.356 111.521 530.256 114.926 528.057 117.763C525.858 120.53 522.737 122.516 518.694 123.722ZM504.862 122.126L517.098 122.232C520.999 121.31 523.979 119.608 526.036 117.125C528.093 114.571 529.121 111.415 529.121 107.655C529.121 103.754 527.986 100.739 525.717 98.6113C523.447 96.4833 520.148 95.3129 515.821 95.1001L504.862 95.2065V122.126Z" fill="#FFCA41"/>
<path d="M483.869 145.534H481.741V93.2913H483.869V145.534Z" fill="#FFCA41"/>
<path d="M465.766 145.534H463.319L462.255 141.81L457.041 128.403H430.654L425.015 141.81L423.738 145.534H421.291L443.316 93.2913H445.55L465.766 145.534ZM444.486 96.4833H444.167L431.505 126.382H456.19L444.486 96.4833Z" fill="#FFCA41"/>
<path fill-rule="evenodd" clip-rule="evenodd" d="M586.706 164.99H499.428V163.09H586.706V164.99Z" fill="#FFCA41"/>
<path fill-rule="evenodd" clip-rule="evenodd" d="M465.453 164.996L341.126 164.996L341.126 163.134L465.453 163.134L465.453 164.996Z" fill="#FFCA41"/>
<path fill-rule="evenodd" clip-rule="evenodd" d="M478.595 163.848C479.579 164.177 480.424 164.633 481.124 165.288C481.804 165.925 482.302 166.708 482.669 167.645C482.99 166.684 483.442 165.868 484.095 165.203C484.754 164.531 485.567 164.064 486.535 163.733C485.571 163.354 484.773 162.839 484.13 162.14C483.505 161.46 483.066 160.65 482.748 159.716C482.382 160.711 481.882 161.55 481.199 162.24C480.496 162.951 479.631 163.47 478.595 163.848ZM479.849 160.903C481.171 159.567 481.698 157.208 481.789 152.671L483.687 152.64C483.805 154.865 483.948 156.59 484.236 157.95C484.522 159.302 484.934 160.207 485.528 160.853C486.117 161.493 486.97 161.973 488.32 162.307C489.684 162.644 491.488 162.817 493.909 162.884L493.902 164.784C491.469 164.834 489.647 164.953 488.261 165.236C486.886 165.517 486.032 165.941 485.451 166.534C484.868 167.128 484.454 168 484.175 169.387C483.894 170.783 483.768 172.602 483.688 175.01L481.789 175.002C481.728 172.609 481.569 170.82 481.245 169.463C480.925 168.12 480.458 167.267 479.825 166.675C479.187 166.077 478.285 165.657 476.924 165.361C475.554 165.063 473.807 164.908 471.542 164.782L471.576 162.884C476.174 162.796 478.529 162.237 479.849 160.903Z" fill="#FFCA41"/>
<path fill-rule="evenodd" clip-rule="evenodd" d="M383.344 62.1079L402.18 61.0828C410.938 60.7459 418.51 59.0618 424.895 56.0377C428.24 54.4488 430.867 52.2783 432.784 49.528C434.697 46.6994 435.658 43.3678 435.658 39.5238V39.276L437.634 39.4407V39.6505C437.634 46.4723 435.07 51.7378 429.938 55.4158C424.833 58.9895 418.206 61.2802 410.074 62.2967L410.046 62.3002C409.788 62.3002 409.46 62.2906 409.062 62.2748C409.44 62.3435 409.785 62.4123 410.095 62.4812L410.106 62.4836C412.939 63.2564 415.261 64.8041 417.064 67.1222C418.865 69.3529 419.774 71.7663 419.774 74.3571C419.774 76.8227 419.308 78.6267 418.32 79.7045L418.181 79.8568L416.859 78.8653L416.929 78.7006C417.421 77.5529 417.671 76.1914 417.671 74.6105C417.671 71.1367 416.27 68.3759 413.457 66.3075C410.719 64.1505 407.178 63.0585 402.826 63.0585H401.312L385.574 63.9328V101.109H401.052C404.078 101.109 406.311 100.677 407.779 99.8407C409.229 99.0151 409.944 97.7919 409.944 96.1438C409.944 95.2509 409.742 94.3991 409.335 93.5858L409.233 93.3818L410.868 92.5641L410.984 92.708C411.702 93.6065 412.047 94.846 412.047 96.3971C412.047 97.903 411.424 99.227 410.204 100.361C409.251 101.313 408.112 101.957 406.794 102.292C409.767 103.631 411.541 106.759 412.172 111.567L412.198 111.769L410.244 112.257L410.201 112.017C409.613 108.739 408.653 106.473 407.351 105.172C406.062 103.802 403.936 103.085 400.926 103.085H385.574V130.85C385.574 135.564 386.333 138.969 387.813 141.107C389.27 143.212 392.047 144.302 396.239 144.302C397.738 144.302 399.41 144.094 401.255 143.675L401.483 143.623L401.822 145.316L401.631 145.38C400.08 145.897 398.154 146.152 395.859 146.152C391.346 146.152 388.095 144.916 386.177 142.388C384.278 139.798 383.344 135.938 383.344 130.85V62.1079ZM385.346 102.858H385.375L385.346 103.082V102.858ZM374.313 142.388C372.395 144.917 369.145 146.152 364.632 146.152C362.337 146.152 360.41 145.897 358.86 145.38L358.736 145.339C354.144 144.072 347.809 140.794 343.718 138.59L344.547 137.051C348.783 139.333 355.131 142.6 359.493 143.732C361.237 144.113 362.823 144.303 364.252 144.303C368.444 144.303 371.221 143.212 372.678 141.107C374.158 138.969 374.917 135.564 374.917 130.851V67.7705C374.917 63.0566 374.158 59.6515 372.678 57.5136C371.221 55.4089 368.444 54.3185 364.252 54.3185C362.752 54.3185 361.081 54.5268 359.236 54.9462L359.007 54.998L358.669 53.3045L358.86 53.2409C360.41 52.7239 362.337 52.4692 364.632 52.4692C369.146 52.4692 372.397 53.7478 374.314 56.3608C376.216 58.8678 377.146 62.6846 377.146 67.7705V130.851C377.146 135.938 376.213 139.798 374.313 142.388Z" fill="#FFCA41"/>
<path d="M884.497 150.093C901.803 149.76 905.275 146.031 905.614 128.975C906.505 145.838 908.248 149.575 926.732 150.093C908.248 150.476 906.223 152.951 905.614 171.21C905.154 152.951 901.675 151.046 884.497 150.093Z" stroke="#FFCA41" stroke-width="2" stroke-linejoin="bevel"/>
<path d="M788.519 0.964661C789.012 26.6105 794.537 31.755 819.812 32.2579C794.824 33.5778 789.286 36.1604 788.519 63.5511C787.952 36.1604 784.284 33.1593 757.226 32.2579C784.284 31.5754 787.107 26.42 788.519 0.964661Z" fill="#8479ED" stroke="#8479ED" stroke-width="2" stroke-linejoin="bevel"/>
<path d="M98.9871 189.762C99.7107 227.416 107.824 234.97 144.933 235.708C108.245 237.646 100.113 241.438 98.9871 281.654C98.1542 241.438 92.7687 237.031 53.0411 235.708C92.7687 234.706 96.9132 227.137 98.9871 189.762Z" stroke="#FFE5AB" stroke-width="2" stroke-linejoin="bevel"/>
<circle cx="6.73795" cy="300.259" r="6.57291" fill="#8479ED"/>
</svg>
